# xmcd
#
# Track frame offsets: 
#        150
#        19955
#        42741
#        64624
#        82164
#        97109
#        117249
#        134609
#        157776
#        180213
#        196060
#
# Disc length: 3070 seconds
#
# Revision: 0
# Processed by: cddbd v1.5.2PL0 Copyright (c) Steve Scherf et al.
# Submitted via: ExactAudioCopy v1.0b1
#
DISCID=910bfc0b
DTITLE=joey 惠 - 心歌
DYEAR=2013
DGENRE=Oldies
TTITLE0=再说一次我爱你
TTITLE1=决定
TTITLE2=恰似你的温柔
TTITLE3=你没来
TTITLE4=庭院深深
TTITLE5=月亮代表我的心
TTITLE6=月光小夜曲
TTITLE7=心痛的感觉
TTITLE8=雾
TTITLE9=一颗红豆
TTITLE10=月亮代表我的心 one take版
EXTD=
EXTT0=
EXTT1=
EXTT2=
EXTT3=
EXTT4=
EXTT5=
EXTT6=
EXTT7=
EXTT8=
EXTT9=
EXTT10=
PLAYORDER=
